# xmcd
#
# Track frame offsets:
#	150
#	28422
#	61955
#	91952
#	117657
#	144552
#	174957
#	211577
#
# Disc length: 3309 seconds
#
# Revision: 0
# Processed by: cddbd v1.5.1PL2 Copyright (c) Steve Scherf et al.
# Submitted via: dBpowerAMP V4.0
#
DISCID=6d0ceb08
DTITLE=Mini All Stars - Raraman
DYEAR=1990
DGENRE=Latin
TTITLE0=Raraman
TTITLE1=My #1(You're)
TTITLE2=Zouke San Kontrol
TTITLE3=A La Salmanza
TTITLE4=Yo Soy Panama
TTITLE5=Joui Pou Joui
TTITLE6=Carnival Fever
TTITLE7=La Fiever Carnaval
EXTD=
EXTT0=
EXTT1=
EXTT2=
EXTT3=
EXTT4=
EXTT5=
EXTT6=
EXTT7=
PLAYORDER=
